<svg xmlns="http://www.w3.org/2000/svg" xmlns:xlink="http://www.w3.org/1999/xlink" width="40" zoomAndPan="magnify" viewBox="0 0 30 30.000001" height="40" preserveAspectRatio="xMidYMid meet" version="1.0"><defs><clipPath id="2d5304351f"><path d="M 1 1 L 15 1 L 15 5 L 1 5 Z M 1 1 " clip-rule="nonzero"/></clipPath><clipPath id="34cc587a5b"><path d="M 2.753906 0.0546875 L 14.480469 3.269531 L 13.410156 7.179688 L 1.679688 3.964844 Z M 2.753906 0.0546875 " clip-rule="nonzero"/></clipPath><clipPath id="65550740ba"><path d="M 2.753906 0.0546875 L 14.480469 3.269531 L 13.410156 7.179688 L 1.679688 3.964844 Z M 2.753906 0.0546875 " clip-rule="nonzero"/></clipPath><clipPath id="cbfcee497a"><path d="M 14 3 L 27 3 L 27 7 L 14 7 Z M 14 3 " clip-rule="nonzero"/></clipPath><clipPath id="446397db0a"><path d="M 25.363281 8.234375 L 13.96875 3.984375 L 15.386719 0.183594 L 26.78125 4.4375 Z M 25.363281 8.234375 " clip-rule="nonzero"/></clipPath><clipPath id="af5814402a"><path d="M 25.363281 8.234375 L 13.96875 3.984375 L 15.386719 0.183594 L 26.78125 4.4375 Z M 25.363281 8.234375 " clip-rule="nonzero"/></clipPath><clipPath id="0d679fc6df"><path d="M 25 5 L 29 5 L 29 17 L 25 17 Z M 25 5 " clip-rule="nonzero"/></clipPath><clipPath id="13497c9cde"><path d="M 29.546875 6.167969 L 28.003906 16.019531 L 24.71875 15.503906 L 26.265625 5.65625 Z M 29.546875 6.167969 " clip-rule="nonzero"/></clipPath><clipPath id="32fd461e41"><path d="M 24.867188 15.746094 L 26.410156 5.898438 L 29.691406 6.410156 L 28.148438 16.261719 Z M 24.867188 15.746094 " clip-rule="nonzero"/></clipPath><clipPath id="f48c31b08c"><path d="M 26 15 L 29 15 L 29 27 L 26 27 Z M 26 15 " clip-rule="nonzero"/></clipPath><clipPath id="8ca7ce5194"><path d="M 24.953125 25.339844 L 27.375 15.667969 L 30.597656 16.472656 L 28.179688 26.144531 Z M 24.953125 25.339844 " clip-rule="nonzero"/></clipPath><clipPath id="8b90b57fe8"><path d="M 24.953125 25.339844 L 27.375 15.667969 L 30.597656 16.472656 L 28.179688 26.144531 Z M 24.953125 25.339844 " clip-rule="nonzero"/></clipPath><clipPath id="8a7cb392a9"><path d="M 15 24 L 29 24 L 29 28 L 15 28 Z M 15 24 " clip-rule="nonzero"/></clipPath><clipPath id="6d015e6536"><path d="M 27.398438 28.960938 L 15.554688 26.203125 L 16.472656 22.253906 L 28.316406 25.011719 Z M 27.398438 28.960938 " clip-rule="nonzero"/></clipPath><clipPath id="1a461fb081"><path d="M 27.398438 28.960938 L 15.554688 26.203125 L 16.472656 22.253906 L 28.316406 25.011719 Z M 27.398438 28.960938 " clip-rule="nonzero"/></clipPath><clipPath id="58e858aae0"><path d="M 3 23 L 16 23 L 16 27 L 3 27 Z M 3 23 " clip-rule="nonzero"/></clipPath><clipPath id="1a70ccb1d1"><path d="M 4.484375 21.664062 L 16.035156 25.46875 L 14.765625 29.320312 L 3.21875 25.515625 Z M 4.484375 21.664062 " clip-rule="nonzero"/></clipPath><clipPath id="288b5efc06"><path d="M 4.484375 21.664062 L 16.035156 25.46875 L 14.765625 29.320312 L 3.21875 25.515625 Z M 4.484375 21.664062 " clip-rule="nonzero"/></clipPath><clipPath id="7a8d9a6301"><path d="M 1 13 L 4 13 L 4 25 L 1 25 Z M 1 13 " clip-rule="nonzero"/></clipPath><clipPath id="67c4bf9293"><path d="M 0.394531 23.890625 L 1.550781 13.988281 L 4.851562 14.375 L 3.691406 24.277344 Z M 0.394531 23.890625 " clip-rule="nonzero"/></clipPath><clipPath id="e8f1a9c5c8"><path d="M 4.699219 14.140625 L 3.539062 24.042969 L 0.238281 23.65625 L 1.398438 13.753906 Z M 4.699219 14.140625 " clip-rule="nonzero"/></clipPath><clipPath id="0e95580175"><path d="M 0.484375 3 L 4 3 L 4 15 L 0.484375 15 Z M 0.484375 3 " clip-rule="nonzero"/></clipPath><clipPath id="580936cdff"><path d="M 4.234375 4.558594 L 2.195312 14.316406 L -1.058594 13.632812 L 0.984375 3.875 Z M 4.234375 4.558594 " clip-rule="nonzero"/></clipPath><clipPath id="c79f85dcfb"><path d="M 4.234375 4.558594 L 2.195312 14.316406 L -1.058594 13.632812 L 0.984375 3.875 Z M 4.234375 4.558594 " clip-rule="nonzero"/></clipPath></defs><g clip-path="url(#2d5304351f)"><g clip-path="url(#34cc587a5b)"><g clip-path="url(#65550740ba)"><path fill="#ffffff" d="M 3.15625 3.175781 C 3.277344 3.265625 3.390625 3.355469 3.503906 3.433594 C 3.621094 3.515625 3.699219 3.632812 3.769531 3.753906 C 3.824219 3.839844 3.820312 3.933594 3.761719 4.019531 C 3.722656 4.078125 3.683594 4.136719 3.636719 4.1875 C 3.464844 4.375 3.265625 4.398438 3.0625 4.273438 C 2.800781 4.109375 2.746094 3.964844 2.800781 3.574219 C 2.8125 3.488281 2.84375 3.410156 2.867188 3.316406 C 2.816406 3.308594 2.765625 3.296875 2.714844 3.296875 C 2.511719 3.292969 2.308594 3.3125 2.117188 3.417969 C 2.050781 3.453125 1.96875 3.457031 1.894531 3.46875 C 1.84375 3.472656 1.839844 3.449219 1.867188 3.40625 C 1.941406 3.289062 2.046875 3.199219 2.167969 3.148438 C 2.433594 3.042969 2.699219 2.996094 2.972656 3.082031 C 2.988281 3.089844 3.019531 3.078125 3.027344 3.0625 C 3.273438 2.730469 3.578125 2.480469 3.914062 2.257812 C 4.296875 2.007812 4.71875 1.835938 5.160156 1.757812 C 5.542969 1.6875 5.929688 1.605469 6.316406 1.621094 C 6.90625 1.644531 7.472656 1.789062 8.007812 2.046875 C 8.5625 2.316406 9.097656 2.628906 9.632812 2.9375 C 9.988281 3.140625 10.34375 3.347656 10.730469 3.480469 C 11.027344 3.582031 11.335938 3.660156 11.640625 3.734375 C 11.882812 3.792969 12.132812 3.835938 12.382812 3.867188 C 12.679688 3.90625 12.980469 3.847656 13.277344 3.800781 C 13.667969 3.746094 14.015625 3.582031 14.3125 3.300781 C 14.34375 3.269531 14.378906 3.242188 14.417969 3.273438 C 14.457031 3.304688 14.4375 3.351562 14.417969 3.386719 C 14.363281 3.496094 14.28125 3.589844 14.179688 3.65625 C 13.902344 3.839844 13.609375 3.984375 13.285156 4.03125 C 12.96875 4.074219 12.652344 4.136719 12.332031 4.101562 C 12.125 4.078125 11.917969 4.046875 11.714844 4 C 11.417969 3.9375 11.117188 3.871094 10.824219 3.78125 C 10.386719 3.652344 9.992188 3.429688 9.597656 3.210938 C 9.15625 2.964844 8.71875 2.703125 8.273438 2.464844 C 7.910156 2.269531 7.535156 2.089844 7.128906 1.992188 C 6.839844 1.925781 6.550781 1.835938 6.257812 1.855469 C 5.648438 1.894531 5.035156 1.910156 4.453125 2.167969 C 3.996094 2.371094 3.574219 2.644531 3.242188 3.058594 C 3.210938 3.09375 3.1875 3.136719 3.15625 3.175781 Z M 3.039062 3.402344 C 2.96875 3.535156 2.957031 3.664062 2.960938 3.796875 C 2.964844 3.972656 3.078125 4.109375 3.246094 4.148438 C 3.390625 4.179688 3.5 4.117188 3.589844 3.945312 C 3.589844 3.945312 3.59375 3.941406 3.59375 3.941406 C 3.589844 3.910156 3.597656 3.875 3.585938 3.855469 C 3.449219 3.648438 3.25 3.519531 3.039062 3.402344 Z M 3.039062 3.402344 " fill-opacity="1" fill-rule="nonzero"/></g></g></g><g clip-path="url(#cbfcee497a)"><g clip-path="url(#446397db0a)"><g clip-path="url(#af5814402a)"><path fill="#ffffff" d="M 25.242188 5.089844 C 25.128906 4.988281 25.027344 4.890625 24.917969 4.800781 C 24.808594 4.710938 24.742188 4.585938 24.679688 4.460938 C 24.636719 4.371094 24.648438 4.277344 24.714844 4.195312 C 24.757812 4.140625 24.804688 4.085938 24.855469 4.039062 C 25.039062 3.867188 25.246094 3.863281 25.433594 4.007812 C 25.679688 4.191406 25.722656 4.339844 25.632812 4.726562 C 25.613281 4.808594 25.574219 4.882812 25.539062 4.976562 C 25.589844 4.988281 25.640625 5.003906 25.695312 5.011719 C 25.898438 5.03125 26.097656 5.027344 26.296875 4.941406 C 26.367188 4.914062 26.449219 4.914062 26.523438 4.910156 C 26.574219 4.910156 26.578125 4.933594 26.546875 4.976562 C 26.464844 5.085938 26.347656 5.167969 26.222656 5.203125 C 25.949219 5.285156 25.679688 5.3125 25.417969 5.199219 C 25.402344 5.191406 25.371094 5.199219 25.359375 5.210938 C 25.085938 5.519531 24.757812 5.742188 24.40625 5.933594 C 24 6.152344 23.5625 6.285156 23.121094 6.324219 C 22.734375 6.359375 22.339844 6.40625 21.957031 6.355469 C 21.371094 6.277344 20.820312 6.082031 20.3125 5.777344 C 19.777344 5.464844 19.277344 5.101562 18.769531 4.746094 C 18.433594 4.511719 18.097656 4.273438 17.726562 4.109375 C 17.4375 3.980469 17.140625 3.875 16.84375 3.773438 C 16.605469 3.695312 16.363281 3.628906 16.117188 3.574219 C 15.820312 3.511719 15.515625 3.542969 15.214844 3.558594 C 14.824219 3.582031 14.464844 3.710938 14.140625 3.96875 C 14.109375 3.992188 14.070312 4.019531 14.035156 3.984375 C 14 3.949219 14.023438 3.90625 14.042969 3.871094 C 14.109375 3.765625 14.199219 3.683594 14.304688 3.625 C 14.597656 3.46875 14.902344 3.347656 15.230469 3.332031 C 15.550781 3.316406 15.871094 3.28125 16.1875 3.347656 C 16.390625 3.390625 16.59375 3.4375 16.789062 3.5 C 17.082031 3.59375 17.375 3.6875 17.660156 3.800781 C 18.082031 3.964844 18.457031 4.226562 18.832031 4.480469 C 19.25 4.761719 19.660156 5.0625 20.082031 5.339844 C 20.425781 5.566406 20.785156 5.78125 21.179688 5.914062 C 21.460938 6.007812 21.738281 6.121094 22.035156 6.128906 C 22.644531 6.144531 23.257812 6.179688 23.859375 5.976562 C 24.335938 5.816406 24.78125 5.582031 25.144531 5.199219 C 25.179688 5.164062 25.207031 5.125 25.242188 5.089844 Z M 25.378906 4.875 C 25.460938 4.75 25.484375 4.621094 25.492188 4.488281 C 25.503906 4.3125 25.402344 4.164062 25.238281 4.113281 C 25.097656 4.066406 24.984375 4.121094 24.878906 4.285156 C 24.878906 4.285156 24.875 4.289062 24.875 4.289062 C 24.875 4.316406 24.863281 4.351562 24.875 4.375 C 24.992188 4.59375 25.179688 4.738281 25.378906 4.875 Z M 25.378906 4.875 " fill-opacity="1" fill-rule="nonzero"/></g></g></g><g clip-path="url(#0d679fc6df)"><g clip-path="url(#13497c9cde)"><g clip-path="url(#32fd461e41)"><path fill="#ffffff" d="M 27.375 15.128906 C 27.433594 15.023438 27.496094 14.925781 27.550781 14.824219 C 27.605469 14.722656 27.695312 14.648438 27.785156 14.578125 C 27.851562 14.527344 27.925781 14.519531 28.003906 14.558594 C 28.054688 14.585938 28.105469 14.613281 28.152344 14.648438 C 28.320312 14.769531 28.355469 14.933594 28.273438 15.105469 C 28.164062 15.335938 28.050781 15.394531 27.726562 15.386719 C 27.660156 15.382812 27.589844 15.363281 27.511719 15.351562 C 27.511719 15.394531 27.503906 15.4375 27.511719 15.480469 C 27.527344 15.648438 27.5625 15.808594 27.664062 15.953125 C 27.699219 16.003906 27.710938 16.070312 27.726562 16.132812 C 27.734375 16.171875 27.71875 16.179688 27.675781 16.160156 C 27.574219 16.113281 27.492188 16.03125 27.441406 15.9375 C 27.332031 15.730469 27.265625 15.519531 27.3125 15.289062 C 27.316406 15.277344 27.304688 15.253906 27.292969 15.246094 C 27 15.074219 26.765625 14.851562 26.554688 14.597656 C 26.316406 14.308594 26.136719 13.980469 26.03125 13.628906 C 25.941406 13.324219 25.839844 13.015625 25.816406 12.699219 C 25.78125 12.214844 25.847656 11.742188 26.007812 11.285156 C 26.175781 10.804688 26.382812 10.34375 26.582031 9.875 C 26.71875 9.566406 26.855469 9.257812 26.925781 8.933594 C 26.980469 8.679688 27.019531 8.425781 27.050781 8.167969 C 27.074219 7.964844 27.085938 7.757812 27.089844 7.550781 C 27.09375 7.304688 27.019531 7.066406 26.953125 6.828125 C 26.871094 6.515625 26.707031 6.25 26.449219 6.03125 C 26.421875 6.007812 26.394531 5.984375 26.417969 5.949219 C 26.441406 5.914062 26.480469 5.925781 26.511719 5.9375 C 26.605469 5.972656 26.6875 6.03125 26.75 6.105469 C 26.925781 6.316406 27.070312 6.539062 27.140625 6.800781 C 27.203125 7.054688 27.285156 7.308594 27.285156 7.570312 C 27.285156 7.742188 27.277344 7.914062 27.261719 8.082031 C 27.234375 8.332031 27.207031 8.582031 27.164062 8.832031 C 27.097656 9.195312 26.953125 9.539062 26.808594 9.882812 C 26.652344 10.265625 26.476562 10.640625 26.324219 11.027344 C 26.199219 11.34375 26.085938 11.664062 26.042969 12.003906 C 26.015625 12.242188 25.96875 12.488281 26.011719 12.726562 C 26.097656 13.21875 26.171875 13.714844 26.433594 14.164062 C 26.640625 14.523438 26.902344 14.839844 27.269531 15.070312 C 27.300781 15.09375 27.335938 15.109375 27.375 15.128906 Z M 27.566406 15.207031 C 27.679688 15.253906 27.789062 15.246094 27.898438 15.234375 C 28.039062 15.214844 28.140625 15.109375 28.15625 14.96875 C 28.167969 14.847656 28.105469 14.765625 27.960938 14.707031 C 27.957031 14.707031 27.957031 14.707031 27.953125 14.707031 C 27.933594 14.710938 27.902344 14.707031 27.886719 14.71875 C 27.730469 14.847656 27.644531 15.023438 27.566406 15.207031 Z M 27.566406 15.207031 " fill-opacity="1" fill-rule="nonzero"/></g></g></g><g clip-path="url(#f48c31b08c)"><g clip-path="url(#8ca7ce5194)"><g clip-path="url(#8b90b57fe8)"><path fill="#ffffff" d="M 27.507812 24.949219 C 27.578125 24.851562 27.648438 24.757812 27.710938 24.660156 C 27.777344 24.566406 27.871094 24.5 27.96875 24.4375 C 28.035156 24.394531 28.113281 24.394531 28.1875 24.441406 C 28.234375 24.46875 28.285156 24.503906 28.328125 24.539062 C 28.484375 24.675781 28.503906 24.839844 28.40625 25.007812 C 28.277344 25.226562 28.160156 25.273438 27.835938 25.234375 C 27.769531 25.226562 27.703125 25.203125 27.625 25.183594 C 27.621094 25.226562 27.613281 25.269531 27.613281 25.3125 C 27.613281 25.480469 27.632812 25.644531 27.722656 25.796875 C 27.753906 25.851562 27.757812 25.917969 27.769531 25.980469 C 27.773438 26.019531 27.757812 26.027344 27.71875 26.003906 C 27.621094 25.945312 27.542969 25.859375 27.503906 25.761719 C 27.410156 25.546875 27.367188 25.328125 27.433594 25.105469 C 27.4375 25.089844 27.429688 25.066406 27.417969 25.058594 C 27.140625 24.863281 26.929688 24.617188 26.742188 24.347656 C 26.527344 24.039062 26.378906 23.695312 26.304688 23.335938 C 26.242188 23.023438 26.167969 22.707031 26.175781 22.390625 C 26.183594 21.90625 26.292969 21.441406 26.492188 20.996094 C 26.699219 20.535156 26.949219 20.09375 27.191406 19.648438 C 27.351562 19.351562 27.515625 19.058594 27.617188 18.738281 C 27.695312 18.492188 27.753906 18.238281 27.808594 17.988281 C 27.851562 17.785156 27.882812 17.582031 27.902344 17.378906 C 27.929688 17.132812 27.875 16.886719 27.832031 16.644531 C 27.78125 16.328125 27.640625 16.046875 27.402344 15.804688 C 27.378906 15.78125 27.351562 15.753906 27.378906 15.722656 C 27.40625 15.6875 27.441406 15.703125 27.472656 15.71875 C 27.5625 15.761719 27.640625 15.828125 27.695312 15.90625 C 27.851562 16.132812 27.976562 16.367188 28.019531 16.632812 C 28.0625 16.894531 28.117188 17.152344 28.097656 17.414062 C 28.082031 17.582031 28.058594 17.753906 28.027344 17.921875 C 27.976562 18.167969 27.929688 18.414062 27.863281 18.65625 C 27.765625 19.015625 27.589844 19.34375 27.414062 19.671875 C 27.222656 20.039062 27.015625 20.402344 26.828125 20.769531 C 26.675781 21.074219 26.535156 21.382812 26.460938 21.71875 C 26.414062 21.953125 26.34375 22.191406 26.367188 22.433594 C 26.410156 22.929688 26.4375 23.433594 26.65625 23.90625 C 26.832031 24.28125 27.0625 24.621094 27.410156 24.882812 C 27.4375 24.90625 27.472656 24.925781 27.507812 24.949219 Z M 27.695312 25.042969 C 27.804688 25.097656 27.910156 25.105469 28.019531 25.101562 C 28.164062 25.09375 28.273438 25 28.300781 24.859375 C 28.324219 24.742188 28.269531 24.652344 28.128906 24.582031 C 28.128906 24.582031 28.125 24.578125 28.125 24.582031 C 28.101562 24.582031 28.070312 24.578125 28.054688 24.585938 C 27.886719 24.703125 27.789062 24.867188 27.695312 25.042969 Z M 27.695312 25.042969 " fill-opacity="1" fill-rule="nonzero"/></g></g></g><g clip-path="url(#8a7cb392a9)"><g clip-path="url(#6d015e6536)"><g clip-path="url(#1a461fb081)"><path fill="#ffffff" d="M 26.871094 25.855469 C 26.75 25.769531 26.632812 25.6875 26.515625 25.609375 C 26.394531 25.535156 26.3125 25.421875 26.238281 25.304688 C 26.183594 25.21875 26.179688 25.125 26.234375 25.035156 C 26.273438 24.976562 26.308594 24.914062 26.355469 24.863281 C 26.515625 24.667969 26.71875 24.640625 26.925781 24.757812 C 27.191406 24.910156 27.253906 25.050781 27.214844 25.445312 C 27.207031 25.527344 27.175781 25.609375 27.15625 25.703125 C 27.207031 25.710938 27.257812 25.71875 27.3125 25.71875 C 27.515625 25.714844 27.714844 25.6875 27.902344 25.574219 C 27.964844 25.535156 28.046875 25.527344 28.121094 25.515625 C 28.171875 25.507812 28.179688 25.527344 28.152344 25.574219 C 28.085938 25.695312 27.980469 25.789062 27.859375 25.84375 C 27.601562 25.957031 27.335938 26.019531 27.0625 25.941406 C 27.046875 25.9375 27.015625 25.949219 27.007812 25.960938 C 26.773438 26.304688 26.476562 26.566406 26.152344 26.800781 C 25.78125 27.070312 25.363281 27.257812 24.925781 27.351562 C 24.546875 27.4375 24.164062 27.53125 23.777344 27.53125 C 23.1875 27.53125 22.617188 27.40625 22.070312 27.171875 C 21.503906 26.925781 20.957031 26.632812 20.410156 26.347656 C 20.046875 26.15625 19.683594 25.960938 19.292969 25.84375 C 18.992188 25.753906 18.683594 25.6875 18.375 25.628906 C 18.128906 25.578125 17.878906 25.542969 17.628906 25.523438 C 17.328125 25.5 17.03125 25.566406 16.734375 25.625 C 16.347656 25.695312 16.007812 25.871094 15.722656 26.164062 C 15.691406 26.195312 15.660156 26.226562 15.617188 26.195312 C 15.578125 26.164062 15.59375 26.121094 15.613281 26.082031 C 15.664062 25.972656 15.742188 25.875 15.839844 25.804688 C 16.109375 25.613281 16.394531 25.453125 16.71875 25.398438 C 17.035156 25.339844 17.347656 25.265625 17.667969 25.289062 C 17.875 25.304688 18.082031 25.328125 18.289062 25.363281 C 18.589844 25.417969 18.890625 25.472656 19.191406 25.546875 C 19.628906 25.660156 20.03125 25.867188 20.4375 26.074219 C 20.886719 26.300781 21.332031 26.542969 21.785156 26.765625 C 22.160156 26.945312 22.539062 27.113281 22.949219 27.191406 C 23.238281 27.25 23.53125 27.328125 23.828125 27.296875 C 24.429688 27.234375 25.042969 27.191406 25.617188 26.914062 C 26.066406 26.691406 26.476562 26.402344 26.792969 25.976562 C 26.820312 25.9375 26.84375 25.894531 26.871094 25.855469 Z M 26.984375 25.625 C 27.046875 25.492188 27.054688 25.359375 27.046875 25.226562 C 27.035156 25.050781 26.914062 24.917969 26.746094 24.886719 C 26.601562 24.859375 26.496094 24.929688 26.410156 25.105469 C 26.410156 25.105469 26.40625 25.105469 26.410156 25.109375 C 26.410156 25.136719 26.40625 25.171875 26.417969 25.191406 C 26.5625 25.394531 26.765625 25.515625 26.984375 25.625 Z M 26.984375 25.625 " fill-opacity="1" fill-rule="nonzero"/></g></g></g><g clip-path="url(#58e858aae0)"><g clip-path="url(#1a70ccb1d1)"><g clip-path="url(#288b5efc06)"><path fill="#ffffff" d="M 4.730469 24.804688 C 4.847656 24.898438 4.953125 24.992188 5.066406 25.078125 C 5.175781 25.164062 5.25 25.285156 5.316406 25.410156 C 5.363281 25.496094 5.355469 25.589844 5.292969 25.675781 C 5.25 25.734375 5.207031 25.789062 5.15625 25.839844 C 4.980469 26.015625 4.777344 26.027344 4.582031 25.894531 C 4.328125 25.71875 4.28125 25.570312 4.355469 25.179688 C 4.371094 25.097656 4.40625 25.019531 4.4375 24.925781 C 4.386719 24.917969 4.335938 24.902344 4.28125 24.898438 C 4.078125 24.886719 3.878906 24.898438 3.679688 24.992188 C 3.613281 25.023438 3.53125 25.023438 3.457031 25.03125 C 3.40625 25.035156 3.398438 25.011719 3.429688 24.964844 C 3.507812 24.855469 3.621094 24.769531 3.746094 24.726562 C 4.015625 24.636719 4.285156 24.597656 4.550781 24.703125 C 4.566406 24.707031 4.597656 24.699219 4.605469 24.683594 C 4.871094 24.367188 5.1875 24.128906 5.535156 23.925781 C 5.929688 23.691406 6.359375 23.542969 6.800781 23.488281 C 7.1875 23.4375 7.578125 23.375 7.964844 23.410156 C 8.554688 23.464844 9.109375 23.636719 9.632812 23.921875 C 10.175781 24.21875 10.691406 24.558594 11.210938 24.890625 C 11.554688 25.113281 11.898438 25.339844 12.28125 25.492188 C 12.570312 25.609375 12.875 25.703125 13.175781 25.789062 C 13.414062 25.859375 13.660156 25.917969 13.910156 25.960938 C 14.207031 26.011719 14.507812 25.972656 14.808594 25.941406 C 15.199219 25.90625 15.554688 25.761719 15.867188 25.492188 C 15.898438 25.464844 15.933594 25.4375 15.972656 25.472656 C 16.007812 25.503906 15.988281 25.550781 15.964844 25.585938 C 15.90625 25.691406 15.820312 25.78125 15.714844 25.839844 C 15.429688 26.007812 15.128906 26.140625 14.804688 26.167969 C 14.484375 26.199219 14.164062 26.242188 13.847656 26.191406 C 13.644531 26.15625 13.4375 26.117188 13.238281 26.0625 C 12.941406 25.980469 12.644531 25.898438 12.355469 25.796875 C 11.929688 25.648438 11.542969 25.402344 11.160156 25.164062 C 10.730469 24.898438 10.308594 24.613281 9.878906 24.351562 C 9.523438 24.136719 9.15625 23.9375 8.757812 23.820312 C 8.472656 23.738281 8.191406 23.636719 7.894531 23.640625 C 7.285156 23.648438 6.671875 23.636719 6.078125 23.863281 C 5.609375 24.042969 5.171875 24.292969 4.820312 24.691406 C 4.789062 24.726562 4.761719 24.765625 4.730469 24.804688 Z M 4.601562 25.023438 C 4.523438 25.152344 4.507812 25.28125 4.503906 25.414062 C 4.5 25.589844 4.605469 25.730469 4.769531 25.777344 C 4.914062 25.816406 5.023438 25.757812 5.125 25.59375 C 5.125 25.589844 5.128906 25.589844 5.125 25.585938 C 5.125 25.558594 5.136719 25.523438 5.125 25.503906 C 5 25.289062 4.808594 25.152344 4.601562 25.023438 Z M 4.601562 25.023438 " fill-opacity="1" fill-rule="nonzero"/></g></g></g><g clip-path="url(#7a8d9a6301)"><g clip-path="url(#67c4bf9293)"><g clip-path="url(#e8f1a9c5c8)"><path fill="#ffffff" d="M 2.214844 14.851562 C 2.15625 14.960938 2.101562 15.0625 2.050781 15.164062 C 2 15.269531 1.914062 15.347656 1.824219 15.421875 C 1.761719 15.472656 1.6875 15.484375 1.609375 15.445312 C 1.554688 15.421875 1.503906 15.398438 1.453125 15.367188 C 1.28125 15.25 1.242188 15.089844 1.316406 14.910156 C 1.417969 14.679688 1.527344 14.617188 1.851562 14.613281 C 1.921875 14.609375 1.988281 14.625 2.070312 14.636719 C 2.066406 14.59375 2.070312 14.550781 2.066406 14.507812 C 2.042969 14.339844 2 14.183594 1.894531 14.039062 C 1.855469 13.992188 1.84375 13.925781 1.824219 13.863281 C 1.8125 13.824219 1.832031 13.816406 1.871094 13.835938 C 1.976562 13.878906 2.0625 13.953125 2.117188 14.046875 C 2.234375 14.25 2.308594 14.460938 2.269531 14.691406 C 2.265625 14.703125 2.277344 14.726562 2.292969 14.734375 C 2.589844 14.890625 2.832031 15.109375 3.054688 15.351562 C 3.304688 15.632812 3.496094 15.953125 3.613281 16.300781 C 3.71875 16.601562 3.832031 16.90625 3.867188 17.21875 C 3.917969 17.703125 3.871094 18.175781 3.730469 18.644531 C 3.582031 19.128906 3.390625 19.597656 3.210938 20.070312 C 3.089844 20.382812 2.964844 20.699219 2.902344 21.027344 C 2.859375 21.28125 2.832031 21.539062 2.8125 21.796875 C 2.792969 22 2.789062 22.207031 2.792969 22.414062 C 2.800781 22.660156 2.882812 22.894531 2.957031 23.132812 C 3.050781 23.441406 3.226562 23.699219 3.492188 23.90625 C 3.519531 23.929688 3.546875 23.953125 3.527344 23.988281 C 3.503906 24.023438 3.464844 24.015625 3.433594 24.003906 C 3.339844 23.972656 3.253906 23.917969 3.1875 23.84375 C 3.003906 23.640625 2.851562 23.425781 2.773438 23.164062 C 2.699219 22.914062 2.609375 22.664062 2.597656 22.402344 C 2.59375 22.230469 2.59375 22.0625 2.601562 21.890625 C 2.621094 21.640625 2.636719 21.386719 2.671875 21.140625 C 2.722656 20.769531 2.855469 20.421875 2.984375 20.074219 C 3.128906 19.6875 3.285156 19.300781 3.425781 18.910156 C 3.539062 18.589844 3.636719 18.265625 3.667969 17.925781 C 3.6875 17.683594 3.722656 17.4375 3.671875 17.203125 C 3.5625 16.714844 3.472656 16.21875 3.195312 15.777344 C 2.972656 15.429688 2.699219 15.125 2.324219 14.90625 C 2.289062 14.886719 2.253906 14.871094 2.214844 14.851562 Z M 2.019531 14.78125 C 1.902344 14.742188 1.796875 14.75 1.6875 14.769531 C 1.546875 14.792969 1.449219 14.902344 1.441406 15.042969 C 1.433594 15.164062 1.496094 15.246094 1.648438 15.296875 C 1.648438 15.296875 1.648438 15.300781 1.652344 15.296875 C 1.675781 15.292969 1.703125 15.296875 1.71875 15.28125 C 1.871094 15.148438 1.949219 14.96875 2.019531 14.78125 Z M 2.019531 14.78125 " fill-opacity="1" fill-rule="nonzero"/></g></g></g><g clip-path="url(#0e95580175)"><g clip-path="url(#580936cdff)"><g clip-path="url(#c79f85dcfb)"><path fill="#ffffff" d="M 1.699219 5.042969 C 1.632812 5.148438 1.566406 5.242188 1.507812 5.34375 C 1.445312 5.441406 1.355469 5.511719 1.261719 5.574219 C 1.191406 5.621094 1.117188 5.625 1.039062 5.582031 C 0.992188 5.554688 0.941406 5.523438 0.894531 5.488281 C 0.734375 5.359375 0.707031 5.191406 0.800781 5.023438 C 0.917969 4.800781 1.035156 4.746094 1.359375 4.773438 C 1.425781 4.777344 1.492188 4.800781 1.574219 4.816406 C 1.574219 4.773438 1.582031 4.730469 1.582031 4.6875 C 1.574219 4.519531 1.546875 4.359375 1.453125 4.207031 C 1.417969 4.152344 1.410156 4.085938 1.398438 4.027344 C 1.390625 3.984375 1.410156 3.980469 1.449219 4 C 1.546875 4.054688 1.625 4.136719 1.671875 4.234375 C 1.773438 4.445312 1.828125 4.660156 1.765625 4.886719 C 1.761719 4.902344 1.773438 4.925781 1.785156 4.933594 C 2.070312 5.117188 2.289062 5.355469 2.488281 5.617188 C 2.714844 5.917969 2.875 6.257812 2.964844 6.613281 C 3.039062 6.921875 3.125 7.234375 3.132812 7.550781 C 3.140625 8.035156 3.050781 8.503906 2.867188 8.957031 C 2.675781 9.425781 2.445312 9.878906 2.222656 10.332031 C 2.074219 10.632812 1.921875 10.933594 1.832031 11.257812 C 1.761719 11.503906 1.714844 11.757812 1.671875 12.015625 C 1.636719 12.214844 1.609375 12.421875 1.597656 12.625 C 1.582031 12.875 1.644531 13.117188 1.695312 13.359375 C 1.761719 13.671875 1.914062 13.949219 2.160156 14.179688 C 2.1875 14.203125 2.210938 14.226562 2.1875 14.261719 C 2.164062 14.296875 2.125 14.285156 2.09375 14.269531 C 2 14.230469 1.921875 14.167969 1.863281 14.089844 C 1.699219 13.871094 1.566406 13.640625 1.511719 13.375 C 1.457031 13.117188 1.390625 12.859375 1.40625 12.597656 C 1.414062 12.429688 1.429688 12.257812 1.457031 12.089844 C 1.492188 11.839844 1.535156 11.59375 1.589844 11.347656 C 1.671875 10.984375 1.835938 10.648438 1.996094 10.316406 C 2.175781 9.941406 2.367188 9.570312 2.539062 9.195312 C 2.683594 8.886719 2.8125 8.570312 2.871094 8.234375 C 2.910156 7.996094 2.96875 7.753906 2.9375 7.515625 C 2.875 7.019531 2.828125 6.519531 2.589844 6.054688 C 2.402344 5.6875 2.15625 5.359375 1.800781 5.109375 C 1.769531 5.085938 1.734375 5.066406 1.699219 5.042969 Z M 1.507812 4.957031 C 1.398438 4.90625 1.289062 4.90625 1.183594 4.914062 C 1.039062 4.925781 0.933594 5.027344 0.910156 5.164062 C 0.890625 5.285156 0.949219 5.371094 1.09375 5.4375 C 1.09375 5.4375 1.097656 5.4375 1.097656 5.4375 C 1.121094 5.4375 1.148438 5.441406 1.164062 5.429688 C 1.328125 5.308594 1.421875 5.136719 1.507812 4.957031 Z M 1.507812 4.957031 " fill-opacity="1" fill-rule="nonzero"/></g></g></g></svg>