<svg xmlns="http://www.w3.org/2000/svg" xmlns:xlink="http://www.w3.org/1999/xlink" width="400" zoomAndPan="magnify" viewBox="0 0 300 299.999988" height="400" preserveAspectRatio="xMidYMid meet" version="1.0"><defs><clipPath id="d0343963f5"><path d="M 1 170 L 21 170 L 21 273 L 1 273 Z M 1 170 " clip-rule="nonzero"/></clipPath><clipPath id="e58232533e"><path d="M 19.882812 170.199219 L 66.148438 230.179688 L 10.917969 272.78125 L -35.347656 212.800781 Z M 19.882812 170.199219 " clip-rule="nonzero"/></clipPath><clipPath id="18191b9ce8"><path d="M 19.882812 170.199219 L 66.148438 230.179688 L 10.917969 272.78125 L -35.347656 212.800781 Z M 19.882812 170.199219 " clip-rule="nonzero"/></clipPath><clipPath id="eab68a52f6"><path d="M 3 51 L 23 51 L 23 172 L 3 172 Z M 3 51 " clip-rule="nonzero"/></clipPath><clipPath id="671245c656"><path d="M 26.273438 52.160156 L 21.761719 172.074219 L 1.523438 171.3125 L 6.039062 51.398438 Z M 26.273438 52.160156 " clip-rule="nonzero"/></clipPath><clipPath id="c0ed1994d1"><path d="M 26.273438 52.160156 L 21.761719 172.074219 L 1.523438 171.3125 L 6.039062 51.398438 Z M 26.273438 52.160156 " clip-rule="nonzero"/></clipPath><clipPath id="b89fc8511b"><path d="M 26.265625 52.382812 L 21.765625 171.96875 L 1.289062 171.199219 L 5.792969 51.613281 Z M 26.265625 52.382812 " clip-rule="nonzero"/></clipPath><clipPath id="ed8e770830"><path d="M 26.265625 52.382812 L 21.769531 171.839844 L 1.527344 171.078125 L 6.023438 51.621094 Z M 26.265625 52.382812 " clip-rule="nonzero"/></clipPath><clipPath id="a09d78e72e"><path d="M 135 280 L 270 280 L 270 292 L 135 292 Z M 135 280 " clip-rule="nonzero"/></clipPath><clipPath id="7fdb294e50"><path d="M 134.820312 280.949219 L 269.074219 272.375 L 270.214844 290.21875 L 135.960938 298.792969 Z M 134.820312 280.949219 " clip-rule="nonzero"/></clipPath><clipPath id="9ccc696108"><path d="M 134.820312 280.949219 L 269.074219 272.375 L 270.214844 290.21875 L 135.960938 298.792969 Z M 134.820312 280.949219 " clip-rule="nonzero"/></clipPath><clipPath id="d8971b92c6"><path d="M 26 280 L 140 280 L 140 290 L 26 290 Z M 26 280 " clip-rule="nonzero"/></clipPath><clipPath id="4d4b57db50"><path d="M 25.824219 280.5 L 138.835938 273.28125 L 139.757812 287.726562 L 26.746094 294.945312 Z M 25.824219 280.5 " clip-rule="nonzero"/></clipPath><clipPath id="2799667647"><path d="M 25.824219 280.5 L 138.835938 273.28125 L 139.757812 287.726562 L 26.746094 294.945312 Z M 25.824219 280.5 " clip-rule="nonzero"/></clipPath><clipPath id="4c81850a69"><path d="M 156 9 L 283 9 L 283 37 L 156 37 Z M 156 9 " clip-rule="nonzero"/></clipPath><clipPath id="2afb0b82c1"><path d="M 170.132812 -18.835938 L 283.105469 21.628906 L 266.414062 68.230469 L 153.441406 27.765625 Z M 170.132812 -18.835938 " clip-rule="nonzero"/></clipPath><clipPath id="0ca971bcba"><path d="M 170.132812 -18.835938 L 283.105469 21.628906 L 266.414062 68.230469 L 153.441406 27.765625 Z M 170.132812 -18.835938 " clip-rule="nonzero"/></clipPath><clipPath id="9360dc757e"><path d="M 18 15 L 157 15 L 157 38 L 18 38 Z M 18 15 " clip-rule="nonzero"/></clipPath><clipPath id="b415872249"><path d="M 17.3125 21.816406 L 92.992188 -47.683594 L 156.910156 21.921875 L 81.230469 91.421875 Z M 17.3125 21.816406 " clip-rule="nonzero"/></clipPath><clipPath id="7b09163a49"><path d="M 17.3125 21.816406 L 92.992188 -47.683594 L 156.910156 21.921875 L 81.230469 91.421875 Z M 17.3125 21.816406 " clip-rule="nonzero"/></clipPath><clipPath id="fed5ea1944"><path d="M 277 45 L 296 45 L 296 148 L 277 148 Z M 277 45 " clip-rule="nonzero"/></clipPath><clipPath id="e037810551"><path d="M 278.273438 148.109375 L 231.355469 88.640625 L 286.113281 45.4375 L 333.03125 104.910156 Z M 278.273438 148.109375 " clip-rule="nonzero"/></clipPath><clipPath id="2b541185bd"><path d="M 278.273438 148.109375 L 231.355469 88.640625 L 286.113281 45.4375 L 333.03125 104.910156 Z M 278.273438 148.109375 " clip-rule="nonzero"/></clipPath><clipPath id="cbb848bc28"><path d="M 276 146 L 295 146 L 295 267 L 276 267 Z M 276 146 " clip-rule="nonzero"/></clipPath><clipPath id="ece7dbb6f5"><path d="M 273.171875 266.214844 L 276.375 146.257812 L 296.617188 146.796875 L 293.414062 266.753906 Z M 273.171875 266.214844 " clip-rule="nonzero"/></clipPath><clipPath id="895cbed7fd"><path d="M 273.171875 266.214844 L 276.375 146.257812 L 296.617188 146.796875 L 293.414062 266.753906 Z M 273.171875 266.214844 " clip-rule="nonzero"/></clipPath><clipPath id="fab532f62c"><path d="M 273.175781 265.988281 L 276.371094 146.363281 L 296.851562 146.90625 L 293.660156 266.535156 Z M 273.175781 265.988281 " clip-rule="nonzero"/></clipPath><clipPath id="1a6e18657c"><path d="M 273.175781 265.988281 L 276.367188 146.488281 L 296.617188 147.03125 L 293.429688 266.527344 Z M 273.175781 265.988281 " clip-rule="nonzero"/></clipPath></defs><g clip-path="url(#d0343963f5)"><g clip-path="url(#e58232533e)"><g clip-path="url(#18191b9ce8)"><path fill="#ffffff" d="M 19.914062 170.9375 C 16.269531 173.382812 12.492188 175.898438 9.839844 179.449219 C 7.722656 182.292969 6.320312 185.847656 6.703125 189.421875 C 7.136719 193.445312 9.742188 196.796875 12.320312 199.738281 C 14.871094 202.664062 17.675781 205.582031 19.03125 209.292969 C 19.675781 211.023438 19.902344 212.890625 19.652344 214.726562 C 19.421875 216.425781 18.8125 218.039062 18 219.546875 C 16.28125 222.6875 13.746094 225.265625 11.179688 227.710938 C 8.375 230.390625 5.445312 233.085938 3.539062 236.523438 C 2.644531 238.148438 2.015625 239.914062 1.753906 241.757812 C 1.503906 243.523438 1.582031 245.332031 1.863281 247.085938 C 3.101562 254.894531 8.277344 261.3125 9.984375 268.984375 C 10.199219 269.960938 10.355469 270.949219 10.441406 271.9375 C 10.464844 272.195312 11.167969 272.585938 11.128906 272.199219 C 10.453125 264.199219 5.207031 257.648438 3.136719 250.042969 C 2.183594 246.5625 1.914062 242.84375 3.128906 239.382812 C 4.433594 235.679688 7.191406 232.722656 9.957031 230.035156 C 14.703125 225.40625 20.957031 220.082031 20.398438 212.75 C 20.113281 208.871094 17.792969 205.527344 15.371094 202.636719 C 12.835938 199.597656 9.851562 196.78125 8.28125 193.082031 C 7.515625 191.304688 7.191406 189.378906 7.382812 187.449219 C 7.5625 185.683594 8.140625 183.960938 8.960938 182.375 C 10.972656 178.558594 14.316406 175.769531 17.769531 173.347656 C 18.671875 172.722656 19.574219 172.113281 20.484375 171.5 C 20.75 171.328125 20.148438 170.789062 19.914062 170.9375 Z M 19.914062 170.9375 " fill-opacity="1" fill-rule="nonzero"/></g></g></g><g clip-path="url(#eab68a52f6)"><g clip-path="url(#671245c656)"><g clip-path="url(#c0ed1994d1)"><g clip-path="url(#b89fc8511b)"><g clip-path="url(#ed8e770830)"><path fill="#ffffff" d="M 8.023438 131.769531 C 8.015625 131.914062 8.023438 132.054688 8.03125 132.195312 C 8.046875 132.351562 8.070312 132.503906 8.101562 132.65625 C 8.140625 132.828125 8.191406 133 8.25 133.167969 C 8.308594 133.328125 8.375 133.480469 8.449219 133.632812 C 8.539062 133.804688 8.636719 133.972656 8.742188 134.132812 C 8.859375 134.300781 8.984375 134.460938 9.121094 134.613281 C 9.28125 134.792969 9.453125 134.960938 9.632812 135.117188 C 9.796875 135.253906 9.964844 135.378906 10.140625 135.496094 C 10.316406 135.605469 10.496094 135.703125 10.679688 135.792969 C 10.894531 135.890625 11.117188 135.976562 11.339844 136.050781 C 11.355469 136.054688 11.371094 136.058594 11.386719 136.0625 C 11.382812 136.0625 11.382812 136.0625 11.382812 136.0625 C 11.628906 136.132812 11.878906 136.191406 12.128906 136.238281 C 12.386719 136.28125 12.640625 136.308594 12.898438 136.320312 C 13.0625 136.324219 13.222656 136.324219 13.386719 136.316406 C 13.273438 135.824219 13.136719 135.335938 12.972656 134.859375 C 12.847656 134.515625 12.703125 134.175781 12.542969 133.847656 C 12.382812 133.539062 12.210938 133.238281 12.015625 132.949219 C 11.863281 132.730469 11.699219 132.519531 11.523438 132.320312 C 11.324219 132.101562 11.113281 131.898438 10.890625 131.703125 C 10.660156 131.511719 10.417969 131.328125 10.167969 131.164062 C 10.007812 131.066406 9.847656 130.976562 9.679688 130.894531 C 9.574219 130.847656 9.464844 130.804688 9.355469 130.769531 C 9.269531 130.746094 9.183594 130.722656 9.097656 130.707031 C 9.03125 130.699219 8.964844 130.691406 8.898438 130.6875 C 8.851562 130.6875 8.804688 130.6875 8.757812 130.691406 C 8.71875 130.695312 8.675781 130.703125 8.636719 130.710938 C 8.605469 130.714844 8.578125 130.726562 8.550781 130.734375 C 8.523438 130.746094 8.492188 130.757812 8.464844 130.769531 C 8.445312 130.785156 8.421875 130.796875 8.398438 130.8125 C 8.375 130.828125 8.355469 130.847656 8.335938 130.863281 C 8.3125 130.886719 8.289062 130.910156 8.269531 130.933594 C 8.25 130.957031 8.230469 130.984375 8.210938 131.011719 C 8.191406 131.046875 8.171875 131.085938 8.152344 131.121094 C 8.132812 131.167969 8.117188 131.214844 8.101562 131.261719 C 8.082031 131.332031 8.066406 131.40625 8.050781 131.476562 C 8.035156 131.574219 8.027344 131.671875 8.023438 131.769531 Z M 4.488281 103.980469 C 4.859375 103.25 5.5 102.675781 6.25 102.375 C 6.582031 102.238281 6.949219 102.226562 7.304688 102.269531 C 7.503906 102.296875 7.707031 102.335938 7.894531 102.40625 C 8.101562 102.480469 8.296875 102.574219 8.488281 102.679688 C 8.898438 102.914062 9.257812 103.222656 9.597656 103.550781 C 9.96875 103.910156 10.308594 104.300781 10.640625 104.699219 C 11.332031 105.535156 11.957031 106.425781 12.578125 107.316406 C 13.171875 108.171875 13.765625 109.03125 14.453125 109.8125 C 14.699219 110.085938 14.957031 110.34375 15.234375 110.585938 C 15.421875 110.738281 15.609375 110.882812 15.808594 111.015625 C 15.804688 111.011719 15.804688 111.011719 15.800781 111.007812 C 15.804688 111.011719 15.808594 111.015625 15.8125 111.015625 C 15.824219 111.023438 15.835938 111.03125 15.847656 111.039062 C 15.839844 111.035156 15.828125 111.027344 15.820312 111.019531 C 15.988281 111.128906 16.160156 111.222656 16.339844 111.3125 C 16.496094 111.386719 16.65625 111.449219 16.820312 111.507812 C 16.976562 111.554688 17.136719 111.59375 17.296875 111.625 C 17.425781 111.644531 17.554688 111.660156 17.683594 111.667969 C 17.8125 111.671875 17.941406 111.667969 18.070312 111.65625 C 18.207031 111.644531 18.339844 111.621094 18.476562 111.597656 C 18.605469 111.566406 18.738281 111.527344 18.867188 111.484375 C 18.957031 111.453125 19.042969 111.417969 19.128906 111.375 C 19.207031 111.335938 19.28125 111.289062 19.355469 111.242188 C 19.429688 111.183594 19.5 111.125 19.570312 111.0625 C 19.671875 110.960938 19.769531 110.859375 19.863281 110.75 C 19.980469 110.609375 20.085938 110.460938 20.191406 110.304688 C 20.316406 110.097656 20.429688 109.886719 20.535156 109.664062 C 20.640625 109.417969 20.734375 109.171875 20.816406 108.914062 C 20.917969 108.566406 21 108.214844 21.066406 107.859375 C 21.136719 107.390625 21.183594 106.925781 21.210938 106.453125 C 21.230469 105.773438 21.210938 105.097656 21.152344 104.425781 C 21.070312 103.582031 20.933594 102.75 20.761719 101.921875 C 20.527344 100.851562 20.253906 99.785156 19.894531 98.753906 C 19.019531 96.363281 17.871094 94.089844 16.730469 91.824219 C 16.734375 91.835938 16.742188 91.847656 16.746094 91.859375 C 16.726562 91.820312 16.710938 91.78125 16.6875 91.742188 C 16.691406 91.746094 16.691406 91.746094 16.691406 91.746094 C 16.574219 91.519531 16.460938 91.289062 16.347656 91.0625 C 16.289062 90.949219 16.230469 90.835938 16.171875 90.71875 C 16.171875 90.71875 16.171875 90.71875 16.171875 90.714844 C 16.160156 90.699219 16.152344 90.683594 16.148438 90.667969 C 16.140625 90.65625 16.136719 90.648438 16.132812 90.636719 C 16.125 90.628906 16.121094 90.617188 16.113281 90.605469 C 16.113281 90.601562 16.113281 90.597656 16.109375 90.597656 C 16.105469 90.585938 16.097656 90.570312 16.089844 90.558594 C 16.03125 90.441406 15.972656 90.324219 15.914062 90.207031 C 15.664062 89.703125 15.410156 89.199219 15.164062 88.695312 C 14.929688 88.214844 14.703125 87.730469 14.480469 87.242188 C 14.261719 86.757812 14.042969 86.269531 13.847656 85.777344 C 13.4375 84.742188 13.0625 83.695312 12.71875 82.636719 C 12.523438 82.035156 12.339844 81.433594 12.164062 80.832031 C 11.988281 80.230469 11.835938 79.628906 11.691406 79.023438 C 11.40625 77.808594 11.15625 76.589844 10.972656 75.359375 C 10.796875 74.207031 10.644531 73.050781 10.519531 71.890625 C 10.390625 70.652344 10.273438 69.410156 10.207031 68.167969 C 10.140625 66.984375 10.09375 65.792969 10.070312 64.605469 C 10.046875 63.449219 10.105469 62.292969 10.15625 61.136719 C 10.183594 60.527344 10.210938 59.917969 10.257812 59.308594 C 10.304688 58.699219 10.371094 58.09375 10.445312 57.488281 C 10.480469 57.191406 10.523438 56.890625 10.5625 56.59375 C 10.582031 56.453125 10.605469 56.316406 10.625 56.175781 C 10.636719 56.113281 10.644531 56.050781 10.65625 55.988281 C 10.664062 55.949219 10.667969 55.910156 10.679688 55.871094 C 10.683594 55.839844 10.6875 55.808594 10.691406 55.777344 C 10.78125 55.257812 10.886719 54.746094 10.988281 54.230469 C 11.089844 53.75 11.191406 53.269531 11.335938 52.800781 C 11.410156 52.550781 11.488281 52.292969 11.625 52.070312 C 11.628906 52.058594 11.632812 52.050781 11.640625 52.042969 C 11.644531 52.035156 11.652344 52.027344 11.65625 52.019531 C 11.773438 51.847656 12.015625 51.800781 12.195312 51.898438 C 12.386719 52.003906 12.484375 52.277344 12.363281 52.476562 C 12.339844 52.515625 12.316406 52.554688 12.296875 52.597656 C 12.234375 52.75 12.183594 52.902344 12.136719 53.058594 C 12.003906 53.511719 11.902344 53.96875 11.808594 54.429688 C 11.707031 54.933594 11.601562 55.4375 11.515625 55.945312 C 11.503906 56.023438 11.492188 56.097656 11.476562 56.171875 C 11.480469 56.15625 11.480469 56.144531 11.484375 56.132812 C 11.34375 57.03125 11.222656 57.9375 11.140625 58.847656 C 11.054688 59.796875 11.011719 60.746094 10.972656 61.699219 C 10.972656 61.679688 10.976562 61.660156 10.976562 61.644531 C 10.949219 62.300781 10.925781 62.960938 10.914062 63.617188 C 10.902344 64.3125 10.917969 65.011719 10.941406 65.707031 C 10.988281 67.125 11.058594 68.542969 11.179688 69.953125 C 11.175781 69.9375 11.175781 69.917969 11.171875 69.898438 C 11.289062 71.167969 11.417969 72.4375 11.585938 73.699219 C 11.667969 74.324219 11.761719 74.945312 11.855469 75.570312 C 11.964844 76.265625 12.097656 76.957031 12.246094 77.648438 C 12.242188 77.644531 12.242188 77.640625 12.242188 77.636719 C 12.464844 78.664062 12.703125 79.6875 13 80.695312 C 13.285156 81.667969 13.59375 82.628906 13.925781 83.582031 C 13.921875 83.566406 13.914062 83.550781 13.910156 83.53125 C 14.269531 84.550781 14.652344 85.558594 15.089844 86.542969 C 15.539062 87.546875 16.019531 88.535156 16.511719 89.515625 C 16.625 89.742188 16.738281 89.96875 16.851562 90.195312 C 16.875 90.238281 16.898438 90.285156 16.917969 90.328125 C 16.925781 90.339844 16.929688 90.351562 16.9375 90.363281 C 16.976562 90.4375 17.011719 90.515625 17.050781 90.589844 C 17.1875 90.859375 17.320312 91.125 17.457031 91.390625 C 17.449219 91.382812 17.445312 91.371094 17.441406 91.363281 C 18.457031 93.382812 19.476562 95.40625 20.320312 97.511719 C 20.535156 98.046875 20.738281 98.585938 20.910156 99.140625 C 21.070312 99.652344 21.203125 100.175781 21.339844 100.699219 C 21.605469 101.746094 21.808594 102.804688 21.941406 103.875 C 22.082031 105.003906 22.101562 106.152344 21.992188 107.285156 C 21.890625 108.324219 21.632812 109.359375 21.167969 110.296875 C 20.941406 110.75 20.636719 111.179688 20.285156 111.546875 C 20.128906 111.707031 19.957031 111.855469 19.773438 111.984375 C 19.566406 112.121094 19.339844 112.226562 19.109375 112.304688 C 18.660156 112.449219 18.195312 112.53125 17.726562 112.519531 C 17.261719 112.511719 16.800781 112.414062 16.367188 112.25 C 14.894531 111.695312 13.816406 110.46875 12.898438 109.226562 C 12.355469 108.488281 11.839844 107.726562 11.308594 106.976562 C 10.765625 106.210938 10.195312 105.460938 9.574219 104.757812 C 9.28125 104.429688 8.976562 104.117188 8.644531 103.828125 C 8.523438 103.726562 8.398438 103.632812 8.265625 103.542969 C 8.113281 103.445312 7.960938 103.359375 7.800781 103.28125 C 7.734375 103.253906 7.671875 103.230469 7.605469 103.203125 C 7.511719 103.175781 7.417969 103.15625 7.324219 103.136719 C 7.210938 103.117188 7.101562 103.105469 6.992188 103.101562 C 6.9375 103.097656 6.886719 103.101562 6.835938 103.105469 C 6.789062 103.109375 6.746094 103.117188 6.703125 103.125 C 6.652344 103.136719 6.605469 103.152344 6.558594 103.167969 C 6.484375 103.199219 6.414062 103.230469 6.339844 103.265625 C 6.242188 103.320312 6.144531 103.378906 6.046875 103.441406 C 5.960938 103.507812 5.875 103.574219 5.792969 103.648438 C 5.703125 103.734375 5.617188 103.824219 5.535156 103.917969 C 5.464844 104.007812 5.398438 104.097656 5.335938 104.195312 C 5.277344 104.289062 5.226562 104.386719 5.179688 104.488281 C 5.117188 104.632812 5.0625 104.777344 5.015625 104.925781 C 4.960938 105.113281 4.917969 105.304688 4.882812 105.496094 C 4.84375 105.742188 4.820312 105.992188 4.808594 106.238281 C 4.800781 106.546875 4.808594 106.851562 4.832031 107.15625 C 4.871094 107.582031 4.933594 108.003906 5.023438 108.425781 C 5.144531 108.976562 5.304688 109.523438 5.492188 110.058594 C 5.484375 110.039062 5.480469 110.023438 5.472656 110.007812 C 5.71875 110.699219 6.011719 111.371094 6.339844 112.027344 C 6.332031 112.011719 6.324219 111.992188 6.316406 111.976562 C 6.640625 112.613281 7.003906 113.222656 7.402344 113.816406 C 7.960938 114.625 8.574219 115.390625 9.199219 116.144531 C 9.742188 116.800781 10.289062 117.449219 10.832031 118.109375 C 11.371094 118.769531 11.90625 119.433594 12.425781 120.113281 C 12.949219 120.796875 13.449219 121.496094 13.933594 122.207031 C 13.929688 122.207031 13.929688 122.203125 13.929688 122.199219 C 14.464844 122.992188 14.980469 123.796875 15.476562 124.613281 C 15.996094 125.464844 16.496094 126.332031 16.945312 127.222656 C 17.5 128.324219 17.929688 129.492188 18.136719 130.714844 C 18.230469 131.253906 18.257812 131.808594 18.222656 132.355469 C 18.191406 132.851562 18.097656 133.339844 17.945312 133.8125 C 17.730469 134.496094 17.347656 135.121094 16.871094 135.648438 C 16.40625 136.167969 15.800781 136.5625 15.152344 136.808594 C 14.90625 136.902344 14.652344 136.980469 14.394531 137.035156 C 14.417969 137.164062 14.441406 137.292969 14.464844 137.425781 C 14.585938 138.128906 14.671875 138.839844 14.703125 139.554688 C 14.726562 140.171875 14.710938 140.789062 14.710938 141.410156 C 14.710938 142.195312 14.738281 142.980469 14.804688 143.765625 C 14.804688 143.75 14.800781 143.730469 14.800781 143.714844 C 14.878906 144.613281 15.015625 145.503906 15.203125 146.386719 C 15.445312 147.464844 15.753906 148.523438 16.117188 149.566406 C 16.109375 149.546875 16.105469 149.53125 16.097656 149.511719 C 16.597656 150.925781 17.214844 152.292969 17.886719 153.628906 C 17.882812 153.625 17.878906 153.617188 17.878906 153.613281 C 18.414062 154.675781 18.984375 155.722656 19.507812 156.792969 C 19.757812 157.304688 19.996094 157.824219 20.214844 158.351562 C 20.425781 158.863281 20.609375 159.382812 20.78125 159.90625 C 21.101562 160.890625 21.351562 161.902344 21.554688 162.917969 C 21.726562 163.777344 21.855469 164.640625 21.929688 165.515625 C 22.015625 166.53125 21.957031 167.554688 21.722656 168.546875 C 21.472656 169.59375 21.0625 170.589844 20.609375 171.5625 C 20.511719 171.773438 20.234375 171.839844 20.039062 171.734375 C 19.941406 171.679688 19.867188 171.585938 19.835938 171.476562 C 19.804688 171.367188 19.824219 171.257812 19.871094 171.15625 C 19.910156 171.070312 19.949219 170.988281 19.988281 170.902344 C 19.980469 170.917969 19.972656 170.933594 19.964844 170.953125 C 20.253906 170.316406 20.515625 169.667969 20.722656 169.003906 C 20.722656 169.015625 20.71875 169.027344 20.714844 169.039062 C 20.71875 169.027344 20.722656 169.011719 20.726562 169 C 20.726562 168.996094 20.730469 168.992188 20.730469 168.988281 C 20.730469 168.992188 20.726562 168.996094 20.726562 169 C 20.847656 168.601562 20.945312 168.195312 21.019531 167.785156 C 21.070312 167.457031 21.105469 167.128906 21.121094 166.796875 C 21.136719 166.34375 21.117188 165.890625 21.082031 165.441406 C 21.082031 165.453125 21.082031 165.464844 21.082031 165.476562 C 20.996094 164.523438 20.835938 163.582031 20.640625 162.644531 C 20.644531 162.664062 20.648438 162.679688 20.652344 162.699219 C 20.429688 161.679688 20.15625 160.675781 19.820312 159.691406 C 19.457031 158.667969 19.011719 157.683594 18.527344 156.714844 C 17.992188 155.652344 17.425781 154.609375 16.902344 153.542969 C 16.363281 152.449219 15.867188 151.335938 15.449219 150.191406 C 15.03125 149.058594 14.6875 147.90625 14.417969 146.730469 C 14.15625 145.578125 14 144.414062 13.921875 143.234375 C 13.867188 142.402344 13.867188 141.566406 13.871094 140.734375 C 13.875 140.148438 13.871094 139.566406 13.824219 138.980469 C 13.765625 138.371094 13.675781 137.761719 13.558594 137.15625 C 12.730469 137.21875 11.886719 137.109375 11.09375 136.863281 C 10.726562 136.746094 10.375 136.597656 10.03125 136.417969 C 9.695312 136.238281 9.382812 136.015625 9.09375 135.769531 C 8.5625 135.320312 8.101562 134.773438 7.769531 134.160156 C 7.492188 133.636719 7.304688 133.074219 7.21875 132.488281 C 7.183594 132.230469 7.171875 131.96875 7.183594 131.707031 C 7.191406 131.484375 7.222656 131.261719 7.285156 131.046875 C 7.414062 130.632812 7.648438 130.253906 8.03125 130.039062 C 8.433594 129.816406 8.890625 129.796875 9.332031 129.882812 C 9.847656 129.984375 10.316406 130.246094 10.753906 130.535156 C 10.996094 130.695312 11.226562 130.878906 11.449219 131.070312 C 11.679688 131.265625 11.898438 131.472656 12.097656 131.695312 C 13.011719 132.707031 13.613281 133.964844 13.988281 135.273438 C 14.074219 135.582031 14.152344 135.890625 14.222656 136.203125 C 14.230469 136.203125 14.238281 136.199219 14.246094 136.199219 C 14.429688 136.152344 14.609375 136.101562 14.789062 136.039062 C 14.9375 135.980469 15.082031 135.917969 15.226562 135.847656 C 15.367188 135.773438 15.5 135.695312 15.632812 135.605469 C 15.78125 135.503906 15.917969 135.390625 16.054688 135.269531 C 16.171875 135.160156 16.28125 135.042969 16.386719 134.921875 C 16.507812 134.769531 16.621094 134.609375 16.726562 134.445312 C 16.8125 134.304688 16.890625 134.15625 16.964844 134.007812 C 17.046875 133.820312 17.121094 133.628906 17.183594 133.433594 C 17.242188 133.226562 17.289062 133.015625 17.328125 132.808594 C 17.359375 132.578125 17.382812 132.351562 17.394531 132.121094 C 17.398438 131.871094 17.390625 131.621094 17.371094 131.371094 C 17.339844 131.054688 17.292969 130.742188 17.230469 130.429688 C 17.132812 130.007812 17.015625 129.597656 16.875 129.191406 C 16.882812 129.203125 16.886719 129.214844 16.890625 129.226562 C 16.703125 128.707031 16.488281 128.203125 16.246094 127.710938 C 15.804688 126.839844 15.320312 125.992188 14.820312 125.160156 C 14.320312 124.332031 13.800781 123.519531 13.261719 122.722656 C 13.238281 122.6875 13.210938 122.648438 13.1875 122.613281 C 13.191406 122.617188 13.191406 122.617188 13.191406 122.617188 C 12.660156 121.839844 12.101562 121.074219 11.523438 120.328125 C 10.929688 119.5625 10.320312 118.816406 9.703125 118.070312 C 9.097656 117.34375 8.488281 116.621094 7.894531 115.886719 C 7.125 114.933594 6.410156 113.929688 5.820312 112.851562 C 5.277344 111.859375 4.828125 110.808594 4.496094 109.726562 C 4.1875 108.730469 3.980469 107.691406 3.964844 106.644531 C 3.960938 106.5 3.964844 106.351562 3.96875 106.207031 C 3.996094 105.4375 4.140625 104.664062 4.488281 103.980469 " fill-opacity="1" fill-rule="nonzero"/></g></g></g></g></g><g clip-path="url(#a09d78e72e)"><g clip-path="url(#7fdb294e50)"><g clip-path="url(#9ccc696108)"><path fill="#ffffff" d="M 242.464844 291.710938 C 232.371094 292.359375 222.1875 291.566406 212.226562 289.324219 L 189.648438 284.242188 C 173.214844 280.546875 155.921875 280.851562 139.640625 285.132812 L 135.898438 286.117188 C 135.589844 286.199219 135.273438 286.007812 135.195312 285.695312 C 135.113281 285.382812 135.296875 285.0625 135.609375 284.980469 L 139.347656 283.996094 C 155.808594 279.667969 173.289062 279.359375 189.898438 283.097656 L 212.476562 288.179688 C 231.269531 292.410156 250.855469 291.417969 269.121094 285.3125 C 269.421875 285.210938 269.75 285.378906 269.847656 285.6875 C 269.949219 285.996094 269.785156 286.324219 269.484375 286.429688 C 260.699219 289.363281 251.617188 291.128906 242.464844 291.710938 Z M 242.464844 291.710938 " fill-opacity="1" fill-rule="nonzero"/></g></g></g><g clip-path="url(#d8971b92c6)"><g clip-path="url(#4d4b57db50)"><g clip-path="url(#2799667647)"><path fill="#ffffff" d="M 116.398438 288.996094 C 107.902344 289.539062 99.335938 288.921875 90.957031 287.125 L 71.960938 283.054688 C 58.136719 280.09375 43.582031 280.378906 29.871094 283.878906 L 26.71875 284.679688 C 26.460938 284.746094 26.195312 284.597656 26.128906 284.339844 C 26.058594 284.089844 26.214844 283.828125 26.476562 283.761719 L 29.628906 282.957031 C 43.488281 279.417969 58.203125 279.132812 72.175781 282.128906 L 91.167969 286.195312 C 106.976562 289.585938 123.460938 288.742188 138.847656 283.761719 C 139.101562 283.675781 139.375 283.8125 139.460938 284.0625 C 139.542969 284.308594 139.40625 284.578125 139.148438 284.660156 C 131.753906 287.054688 124.105469 288.503906 116.398438 288.996094 Z M 116.398438 288.996094 " fill-opacity="1" fill-rule="nonzero"/></g></g></g><g clip-path="url(#4c81850a69)"><g clip-path="url(#2afb0b82c1)"><g clip-path="url(#0ca971bcba)"><path fill="#ffffff" d="M 156.289062 22.265625 C 159.929688 26.3125 163.773438 30.519531 168.808594 32.839844 C 173.488281 34.945312 178.46875 35.011719 183.039062 32.617188 C 187.164062 30.492188 190.75 27.230469 194.25 24.195312 C 197.753906 21.164062 201.3125 17.976562 205.289062 15.542969 C 207.160156 14.410156 209.082031 13.382812 211.179688 12.589844 C 213.378906 11.75 215.960938 11.042969 218.347656 11.125 C 224.605469 11.480469 224 19.671875 225.503906 23.898438 C 228.8125 32.972656 239.523438 36.554688 248.335938 36.277344 C 260.824219 35.863281 271.667969 29.195312 281.992188 22.773438 C 282.667969 22.328125 282.101562 21.269531 281.449219 21.636719 C 272.242188 27.34375 262.671875 33.351562 251.65625 34.722656 C 242.617188 35.859375 230.882812 33.457031 226.886719 24.136719 C 225.046875 19.875 225.988281 14.121094 221.839844 11.007812 C 219.867188 9.527344 217.296875 9.722656 214.976562 10.175781 C 212.941406 10.5625 210.976562 11.230469 209.136719 12.03125 C 200.921875 15.691406 194.773438 22.496094 187.804688 27.976562 C 185.640625 29.691406 183.347656 31.269531 180.835938 32.257812 C 177.9375 33.363281 174.804688 33.441406 171.84375 32.554688 C 165.769531 30.722656 161.425781 25.992188 157.28125 21.417969 C 156.675781 20.945312 155.785156 21.742188 156.289062 22.265625 Z M 156.289062 22.265625 " fill-opacity="1" fill-rule="nonzero"/></g></g></g><g clip-path="url(#9360dc757e)"><g clip-path="url(#b415872249)"><g clip-path="url(#7b09163a49)"><path fill="#ffffff" d="M 18.304688 21.691406 C 22.03125 26.324219 25.863281 31.128906 30.964844 34.296875 C 35.054688 36.824219 40.015625 38.300781 44.800781 37.363281 C 50.183594 36.308594 54.414062 32.398438 58.085938 28.574219 C 61.742188 24.785156 65.359375 20.65625 70.214844 18.390625 C 72.484375 17.320312 74.976562 16.796875 77.484375 16.917969 C 79.808594 17.03125 82.054688 17.667969 84.1875 18.585938 C 88.628906 20.539062 92.402344 23.664062 96.003906 26.84375 C 99.945312 30.3125 103.921875 33.957031 108.789062 36.125 C 111.085938 37.144531 113.546875 37.789062 116.0625 37.925781 C 118.476562 38.054688 120.910156 37.738281 123.25 37.15625 C 133.65625 34.566406 141.726562 26.828125 151.894531 23.625 C 153.1875 23.21875 154.503906 22.894531 155.828125 22.664062 C 156.171875 22.597656 156.621094 21.605469 156.105469 21.703125 C 145.375 23.554688 137.128906 31.402344 127.097656 35.085938 C 122.503906 36.78125 117.511719 37.582031 112.699219 36.347656 C 107.546875 35.019531 103.230469 31.636719 99.285156 28.21875 C 92.484375 22.351562 84.566406 14.527344 74.730469 16.140625 C 69.527344 16.980469 65.273438 20.507812 61.652344 24.113281 C 57.835938 27.890625 54.378906 32.253906 49.5625 34.808594 C 47.25 36.050781 44.683594 36.714844 42.054688 36.679688 C 39.652344 36.640625 37.253906 36.066406 35.019531 35.140625 C 29.632812 32.871094 25.480469 28.679688 21.8125 24.300781 C 20.859375 23.15625 19.9375 22.011719 19 20.851562 C 18.738281 20.511719 18.082031 21.390625 18.304688 21.691406 Z M 18.304688 21.691406 " fill-opacity="1" fill-rule="nonzero"/></g></g></g><g clip-path="url(#fed5ea1944)"><g clip-path="url(#e037810551)"><g clip-path="url(#2b541185bd)"><path fill="#ffffff" d="M 278.234375 147.375 C 281.847656 144.886719 285.597656 142.332031 288.210938 138.753906 C 290.300781 135.882812 291.660156 132.316406 291.238281 128.742188 C 290.761719 124.726562 288.121094 121.402344 285.511719 118.492188 C 282.925781 115.59375 280.089844 112.707031 278.695312 109.011719 C 278.03125 107.285156 277.785156 105.421875 278.015625 103.585938 C 278.226562 101.882812 278.820312 100.261719 279.617188 98.746094 C 281.300781 95.585938 283.804688 92.980469 286.347656 90.507812 C 289.117188 87.796875 292.019531 85.070312 293.886719 81.609375 C 294.765625 79.976562 295.375 78.203125 295.617188 76.359375 C 295.847656 74.589844 295.75 72.78125 295.449219 71.03125 C 294.125 63.234375 288.878906 56.875 287.089844 49.222656 C 286.863281 48.25 286.695312 47.261719 286.597656 46.277344 C 286.570312 46.019531 285.867188 45.632812 285.90625 46.019531 C 286.671875 54.011719 291.988281 60.507812 294.140625 68.085938 C 295.132812 71.558594 295.441406 75.273438 294.265625 78.746094 C 293.003906 82.464844 290.277344 85.453125 287.542969 88.167969 C 282.847656 92.851562 276.648438 98.242188 277.289062 105.570312 C 277.621094 109.441406 279.976562 112.761719 282.425781 115.625 C 284.996094 118.636719 288.011719 121.417969 289.621094 125.101562 C 290.40625 126.871094 290.753906 128.792969 290.582031 130.726562 C 290.421875 132.492188 289.863281 134.222656 289.058594 135.816406 C 287.089844 139.65625 283.773438 142.476562 280.347656 144.9375 C 279.453125 145.574219 278.558594 146.191406 277.65625 146.816406 C 277.390625 146.992188 278 147.523438 278.234375 147.375 Z M 278.234375 147.375 " fill-opacity="1" fill-rule="nonzero"/></g></g></g><g clip-path="url(#cbb848bc28)"><g clip-path="url(#ece7dbb6f5)"><g clip-path="url(#895cbed7fd)"><g clip-path="url(#fab532f62c)"><g clip-path="url(#1a6e18657c)"><path fill="#ffffff" d="M 290.550781 186.40625 C 290.554688 186.265625 290.546875 186.125 290.539062 185.984375 C 290.519531 185.828125 290.496094 185.675781 290.460938 185.519531 C 290.421875 185.347656 290.371094 185.179688 290.308594 185.011719 C 290.25 184.855469 290.179688 184.699219 290.105469 184.546875 C 290.015625 184.375 289.914062 184.210938 289.804688 184.050781 C 289.6875 183.886719 289.558594 183.726562 289.421875 183.574219 C 289.257812 183.398438 289.085938 183.234375 288.902344 183.078125 C 288.738281 182.945312 288.570312 182.820312 288.390625 182.707031 C 288.214844 182.597656 288.035156 182.503906 287.851562 182.414062 C 287.632812 182.320312 287.414062 182.238281 287.1875 182.164062 C 287.171875 182.160156 287.15625 182.15625 287.140625 182.152344 C 287.144531 182.152344 287.144531 182.152344 287.144531 182.152344 C 286.898438 182.082031 286.648438 182.027344 286.394531 181.984375 C 286.140625 181.945312 285.882812 181.921875 285.625 181.910156 C 285.464844 181.90625 285.300781 181.910156 285.140625 181.921875 C 285.257812 182.414062 285.398438 182.898438 285.570312 183.371094 C 285.699219 183.714844 285.84375 184.050781 286.011719 184.378906 C 286.171875 184.6875 286.347656 184.988281 286.546875 185.273438 C 286.703125 185.492188 286.867188 185.699219 287.046875 185.898438 C 287.246094 186.113281 287.460938 186.316406 287.683594 186.503906 C 287.917969 186.695312 288.160156 186.875 288.414062 187.039062 C 288.574219 187.132812 288.734375 187.222656 288.90625 187.300781 C 289.011719 187.347656 289.121094 187.386719 289.230469 187.421875 C 289.316406 187.445312 289.398438 187.464844 289.488281 187.480469 C 289.554688 187.488281 289.621094 187.496094 289.6875 187.5 C 289.734375 187.5 289.78125 187.5 289.828125 187.496094 C 289.867188 187.488281 289.910156 187.484375 289.949219 187.476562 C 289.976562 187.46875 290.007812 187.457031 290.035156 187.449219 C 290.0625 187.4375 290.089844 187.425781 290.117188 187.410156 C 290.140625 187.398438 290.164062 187.382812 290.1875 187.371094 C 290.207031 187.351562 290.230469 187.335938 290.25 187.316406 C 290.273438 187.296875 290.292969 187.273438 290.316406 187.246094 C 290.335938 187.222656 290.351562 187.195312 290.371094 187.167969 C 290.390625 187.132812 290.410156 187.09375 290.429688 187.054688 C 290.445312 187.011719 290.464844 186.964844 290.480469 186.917969 C 290.5 186.847656 290.511719 186.773438 290.527344 186.699219 C 290.539062 186.601562 290.546875 186.503906 290.550781 186.40625 Z M 294.390625 214.160156 C 294.027344 214.890625 293.390625 215.472656 292.648438 215.78125 C 292.3125 215.917969 291.945312 215.9375 291.59375 215.898438 C 291.394531 215.871094 291.191406 215.835938 291 215.769531 C 290.792969 215.699219 290.597656 215.605469 290.40625 215.5 C 289.992188 215.273438 289.628906 214.964844 289.285156 214.640625 C 288.910156 214.285156 288.566406 213.898438 288.230469 213.507812 C 287.527344 212.679688 286.894531 211.792969 286.261719 210.910156 C 285.660156 210.0625 285.058594 209.207031 284.363281 208.433594 C 284.113281 208.164062 283.851562 207.90625 283.570312 207.667969 C 283.382812 207.519531 283.191406 207.375 282.992188 207.246094 C 282.996094 207.25 283 207.25 283 207.253906 C 282.996094 207.25 282.992188 207.246094 282.988281 207.246094 C 282.976562 207.238281 282.964844 207.230469 282.953125 207.222656 C 282.960938 207.226562 282.972656 207.234375 282.984375 207.242188 C 282.8125 207.136719 282.640625 207.042969 282.460938 206.953125 C 282.300781 206.882812 282.140625 206.820312 281.976562 206.765625 C 281.816406 206.71875 281.660156 206.683594 281.5 206.652344 C 281.371094 206.632812 281.242188 206.621094 281.113281 206.613281 C 280.980469 206.613281 280.851562 206.617188 280.722656 206.628906 C 280.585938 206.644531 280.453125 206.667969 280.320312 206.695312 C 280.1875 206.726562 280.058594 206.765625 279.929688 206.808594 C 279.839844 206.84375 279.753906 206.878906 279.667969 206.921875 C 279.589844 206.964844 279.515625 207.011719 279.441406 207.058594 C 279.371094 207.117188 279.300781 207.175781 279.230469 207.238281 C 279.128906 207.339844 279.035156 207.445312 278.941406 207.554688 C 278.828125 207.699219 278.722656 207.847656 278.621094 208.003906 C 278.496094 208.210938 278.382812 208.425781 278.28125 208.648438 C 278.175781 208.894531 278.085938 209.144531 278.007812 209.402344 C 277.910156 209.75 277.832031 210.101562 277.773438 210.460938 C 277.703125 210.925781 277.664062 211.394531 277.644531 211.867188 C 277.628906 212.546875 277.65625 213.222656 277.71875 213.894531 C 277.8125 214.738281 277.957031 215.570312 278.140625 216.394531 C 278.386719 217.460938 278.671875 218.523438 279.039062 219.550781 C 279.941406 221.929688 281.113281 224.191406 282.28125 226.445312 C 282.277344 226.433594 282.269531 226.425781 282.265625 226.414062 C 282.285156 226.449219 282.304688 226.488281 282.324219 226.527344 C 282.324219 226.527344 282.324219 226.527344 282.324219 226.523438 C 282.441406 226.75 282.558594 226.976562 282.675781 227.203125 C 282.734375 227.316406 282.792969 227.429688 282.851562 227.542969 C 282.851562 227.546875 282.851562 227.546875 282.851562 227.550781 C 282.863281 227.566406 282.871094 227.582031 282.878906 227.597656 C 282.882812 227.605469 282.886719 227.617188 282.890625 227.625 C 282.898438 227.636719 282.90625 227.648438 282.910156 227.660156 C 282.910156 227.660156 282.914062 227.664062 282.914062 227.667969 C 282.921875 227.679688 282.929688 227.691406 282.933594 227.707031 C 282.996094 227.820312 283.054688 227.9375 283.113281 228.054688 C 283.371094 228.554688 283.628906 229.054688 283.882812 229.558594 C 284.125 230.035156 284.351562 230.519531 284.578125 231 C 284.808594 231.484375 285.027344 231.96875 285.230469 232.460938 C 285.652344 233.492188 286.039062 234.535156 286.394531 235.589844 C 286.59375 236.1875 286.785156 236.785156 286.96875 237.390625 C 287.152344 237.984375 287.3125 238.585938 287.460938 239.191406 C 287.761719 240.402344 288.019531 241.617188 288.21875 242.847656 C 288.40625 244 288.570312 245.152344 288.707031 246.3125 C 288.851562 247.546875 288.980469 248.789062 289.066406 250.027344 C 289.144531 251.214844 289.203125 252.402344 289.238281 253.589844 C 289.273438 254.746094 289.230469 255.90625 289.191406 257.058594 C 289.171875 257.667969 289.152344 258.28125 289.109375 258.890625 C 289.070312 259.5 289.007812 260.105469 288.941406 260.710938 C 288.910156 261.011719 288.871094 261.308594 288.832031 261.609375 C 288.816406 261.746094 288.796875 261.886719 288.773438 262.023438 C 288.765625 262.085938 288.757812 262.152344 288.746094 262.210938 C 288.742188 262.253906 288.734375 262.292969 288.726562 262.332031 C 288.722656 262.363281 288.71875 262.394531 288.714844 262.425781 C 288.632812 262.945312 288.53125 263.460938 288.433594 263.972656 C 288.339844 264.457031 288.242188 264.9375 288.105469 265.410156 C 288.03125 265.660156 287.957031 265.917969 287.824219 266.144531 C 287.816406 266.152344 287.8125 266.160156 287.804688 266.171875 C 287.800781 266.179688 287.796875 266.183594 287.792969 266.191406 C 287.675781 266.367188 287.433594 266.417969 287.253906 266.320312 C 287.058594 266.21875 286.960938 265.941406 287.078125 265.746094 C 287.101562 265.707031 287.125 265.664062 287.144531 265.621094 C 287.203125 265.46875 287.253906 265.316406 287.300781 265.15625 C 287.425781 264.707031 287.523438 264.246094 287.613281 263.785156 C 287.710938 263.28125 287.808594 262.773438 287.886719 262.265625 C 287.898438 262.1875 287.910156 262.113281 287.925781 262.039062 C 287.921875 262.054688 287.917969 262.066406 287.917969 262.078125 C 288.050781 261.179688 288.160156 260.269531 288.230469 259.359375 C 288.304688 258.410156 288.339844 257.460938 288.367188 256.507812 C 288.367188 256.527344 288.367188 256.542969 288.367188 256.5625 C 288.382812 255.90625 288.402344 255.246094 288.40625 254.585938 C 288.410156 253.890625 288.386719 253.195312 288.355469 252.5 C 288.292969 251.082031 288.210938 249.664062 288.070312 248.253906 C 288.074219 248.273438 288.074219 248.289062 288.078125 248.308594 C 287.949219 247.039062 287.804688 245.777344 287.625 244.515625 C 287.535156 243.890625 287.4375 243.269531 287.332031 242.648438 C 287.21875 241.949219 287.074219 241.261719 286.921875 240.574219 C 286.921875 240.574219 286.921875 240.578125 286.925781 240.582031 C 286.691406 239.558594 286.441406 238.539062 286.132812 237.53125 C 285.835938 236.566406 285.519531 235.605469 285.175781 234.65625 C 285.183594 234.671875 285.1875 234.6875 285.195312 234.707031 C 284.820312 233.691406 284.429688 232.6875 283.976562 231.707031 C 283.519531 230.710938 283.027344 229.726562 282.527344 228.75 C 282.410156 228.527344 282.292969 228.300781 282.175781 228.078125 C 282.152344 228.03125 282.132812 227.988281 282.109375 227.945312 C 282.101562 227.933594 282.097656 227.921875 282.09375 227.910156 C 282.050781 227.835938 282.011719 227.757812 281.972656 227.683594 C 281.835938 227.417969 281.699219 227.152344 281.558594 226.886719 C 281.566406 226.898438 281.570312 226.90625 281.578125 226.917969 C 280.535156 224.90625 279.496094 222.894531 278.628906 220.800781 C 278.410156 220.265625 278.203125 219.726562 278.023438 219.175781 C 277.855469 218.664062 277.714844 218.144531 277.578125 217.621094 C 277.296875 216.578125 277.082031 215.523438 276.9375 214.453125 C 276.785156 213.324219 276.753906 212.175781 276.851562 211.046875 C 276.941406 210 277.1875 208.964844 277.644531 208.023438 C 277.863281 207.566406 278.164062 207.132812 278.511719 206.765625 C 278.667969 206.601562 278.832031 206.449219 279.019531 206.320312 C 279.222656 206.183594 279.449219 206.074219 279.679688 205.996094 C 280.125 205.84375 280.589844 205.753906 281.058594 205.761719 C 281.523438 205.765625 281.984375 205.859375 282.421875 206.019531 C 283.898438 206.554688 284.992188 207.769531 285.921875 209.003906 C 286.476562 209.734375 286.996094 210.492188 287.539062 211.234375 C 288.089844 211.996094 288.667969 212.742188 289.296875 213.4375 C 289.59375 213.757812 289.902344 214.070312 290.234375 214.355469 C 290.359375 214.457031 290.484375 214.546875 290.617188 214.636719 C 290.769531 214.730469 290.925781 214.816406 291.085938 214.890625 C 291.152344 214.917969 291.214844 214.941406 291.28125 214.964844 C 291.375 214.992188 291.46875 215.015625 291.5625 215.03125 C 291.675781 215.046875 291.785156 215.058594 291.898438 215.066406 C 291.949219 215.066406 292 215.0625 292.054688 215.058594 C 292.097656 215.050781 292.140625 215.046875 292.183594 215.039062 C 292.234375 215.023438 292.28125 215.007812 292.328125 214.992188 C 292.402344 214.960938 292.472656 214.925781 292.546875 214.890625 C 292.644531 214.835938 292.742188 214.777344 292.835938 214.714844 C 292.921875 214.648438 293.007812 214.578125 293.089844 214.503906 C 293.179688 214.417969 293.261719 214.328125 293.34375 214.230469 C 293.414062 214.140625 293.476562 214.046875 293.539062 213.953125 C 293.59375 213.855469 293.648438 213.757812 293.691406 213.65625 C 293.753906 213.511719 293.804688 213.367188 293.851562 213.214844 C 293.902344 213.027344 293.945312 212.839844 293.976562 212.644531 C 294.011719 212.398438 294.035156 212.148438 294.042969 211.902344 C 294.046875 211.59375 294.039062 211.289062 294.011719 210.988281 C 293.96875 210.558594 293.898438 210.136719 293.804688 209.71875 C 293.675781 209.167969 293.511719 208.625 293.320312 208.089844 C 293.328125 208.109375 293.332031 208.125 293.339844 208.140625 C 293.085938 207.453125 292.789062 206.785156 292.449219 206.132812 C 292.457031 206.148438 292.464844 206.164062 292.476562 206.179688 C 292.140625 205.546875 291.773438 204.941406 291.367188 204.355469 C 290.800781 203.550781 290.179688 202.792969 289.546875 202.046875 C 288.996094 201.394531 288.441406 200.75 287.894531 200.101562 C 287.34375 199.445312 286.800781 198.785156 286.277344 198.113281 C 285.746094 197.4375 285.238281 196.742188 284.746094 196.035156 C 284.746094 196.035156 284.75 196.039062 284.75 196.042969 C 284.207031 195.257812 283.683594 194.457031 283.175781 193.644531 C 282.648438 192.796875 282.140625 191.9375 281.679688 191.054688 C 281.109375 189.957031 280.667969 188.796875 280.449219 187.574219 C 280.351562 187.035156 280.316406 186.480469 280.347656 185.933594 C 280.371094 185.4375 280.460938 184.949219 280.605469 184.472656 C 280.8125 183.789062 281.191406 183.160156 281.660156 182.625 C 282.121094 182.101562 282.722656 181.699219 283.367188 181.445312 C 283.613281 181.347656 283.867188 181.269531 284.125 181.210938 C 284.097656 181.082031 284.074219 180.953125 284.050781 180.824219 C 283.917969 180.121094 283.824219 179.414062 283.785156 178.699219 C 283.753906 178.082031 283.765625 177.460938 283.757812 176.84375 C 283.746094 176.054688 283.710938 175.269531 283.640625 174.484375 C 283.640625 174.503906 283.640625 174.523438 283.644531 174.539062 C 283.554688 173.640625 283.410156 172.75 283.210938 171.871094 C 282.957031 170.796875 282.640625 169.742188 282.265625 168.703125 C 282.269531 168.71875 282.277344 168.738281 282.28125 168.753906 C 281.765625 167.347656 281.136719 165.988281 280.449219 164.65625 C 280.453125 164.664062 280.457031 164.667969 280.457031 164.675781 C 279.910156 163.617188 279.328125 162.578125 278.792969 161.511719 C 278.535156 161.003906 278.292969 160.488281 278.070312 159.960938 C 277.855469 159.453125 277.664062 158.933594 277.484375 158.410156 C 277.15625 157.429688 276.894531 156.425781 276.679688 155.410156 C 276.5 154.554688 276.359375 153.6875 276.273438 152.816406 C 276.179688 151.800781 276.226562 150.777344 276.453125 149.785156 C 276.6875 148.734375 277.085938 147.730469 277.527344 146.753906 C 277.625 146.542969 277.902344 146.472656 278.097656 146.578125 C 278.195312 146.628906 278.273438 146.722656 278.304688 146.832031 C 278.335938 146.941406 278.320312 147.050781 278.273438 147.152344 C 278.234375 147.238281 278.195312 147.324219 278.15625 147.410156 C 278.164062 147.394531 278.171875 147.375 278.179688 147.359375 C 277.898438 147.996094 277.644531 148.648438 277.441406 149.316406 C 277.445312 149.304688 277.449219 149.292969 277.453125 149.277344 C 277.449219 149.292969 277.445312 149.304688 277.441406 149.320312 C 277.441406 149.324219 277.4375 149.328125 277.4375 149.332031 C 277.4375 149.328125 277.441406 149.324219 277.441406 149.320312 C 277.328125 149.71875 277.230469 150.125 277.164062 150.535156 C 277.113281 150.867188 277.082031 151.195312 277.070312 151.527344 C 277.0625 151.980469 277.082031 152.429688 277.125 152.882812 C 277.125 152.871094 277.125 152.859375 277.121094 152.84375 C 277.21875 153.796875 277.390625 154.738281 277.597656 155.671875 C 277.59375 155.652344 277.589844 155.636719 277.585938 155.617188 C 277.816406 156.632812 278.101562 157.636719 278.449219 158.617188 C 278.820312 159.636719 279.277344 160.617188 279.773438 161.582031 C 280.320312 162.636719 280.898438 163.671875 281.433594 164.734375 C 281.984375 165.820312 282.492188 166.929688 282.925781 168.070312 C 283.351562 169.195312 283.710938 170.347656 283.992188 171.519531 C 284.265625 172.664062 284.4375 173.832031 284.527344 175.007812 C 284.589844 175.839844 284.601562 176.675781 284.605469 177.507812 C 284.609375 178.09375 284.617188 178.675781 284.671875 179.261719 C 284.734375 179.871094 284.835938 180.480469 284.957031 181.082031 C 285.785156 181.011719 286.628906 181.109375 287.425781 181.347656 C 287.792969 181.460938 288.148438 181.605469 288.492188 181.78125 C 288.828125 181.957031 289.144531 182.175781 289.4375 182.417969 C 289.972656 182.863281 290.441406 183.402344 290.777344 184.015625 C 291.0625 184.535156 291.257812 185.09375 291.347656 185.679688 C 291.386719 185.9375 291.398438 186.199219 291.390625 186.460938 C 291.382812 186.683594 291.359375 186.910156 291.296875 187.121094 C 291.171875 187.539062 290.941406 187.917969 290.5625 188.136719 C 290.164062 188.363281 289.707031 188.390625 289.265625 188.308594 C 288.746094 188.210938 288.273438 187.957031 287.835938 187.675781 C 287.589844 187.515625 287.355469 187.335938 287.132812 187.144531 C 286.902344 186.953125 286.679688 186.746094 286.476562 186.527344 C 285.550781 185.527344 284.9375 184.273438 284.546875 182.96875 C 284.457031 182.664062 284.375 182.351562 284.300781 182.042969 C 284.292969 182.042969 284.289062 182.046875 284.28125 182.046875 C 284.097656 182.09375 283.917969 182.148438 283.738281 182.214844 C 283.589844 182.273438 283.445312 182.335938 283.304688 182.410156 C 283.164062 182.484375 283.03125 182.566406 282.898438 182.652344 C 282.753906 182.761719 282.617188 182.875 282.480469 182.996094 C 282.367188 183.109375 282.257812 183.226562 282.152344 183.347656 C 282.03125 183.503906 281.921875 183.660156 281.816406 183.828125 C 281.734375 183.96875 281.65625 184.117188 281.585938 184.269531 C 281.503906 184.457031 281.433594 184.648438 281.371094 184.847656 C 281.316406 185.050781 281.269531 185.261719 281.234375 185.472656 C 281.203125 185.703125 281.1875 185.929688 281.179688 186.160156 C 281.175781 186.410156 281.1875 186.65625 281.207031 186.90625 C 281.242188 187.222656 281.292969 187.535156 281.359375 187.847656 C 281.460938 188.269531 281.582031 188.679688 281.726562 189.082031 C 281.722656 189.070312 281.71875 189.058594 281.714844 189.046875 C 281.902344 189.566406 282.125 190.066406 282.371094 190.554688 C 282.820312 191.421875 283.316406 192.265625 283.828125 193.09375 C 284.335938 193.914062 284.863281 194.71875 285.410156 195.511719 C 285.4375 195.546875 285.460938 195.582031 285.488281 195.621094 C 285.484375 195.617188 285.484375 195.617188 285.480469 195.613281 C 286.023438 196.390625 286.589844 197.148438 287.175781 197.886719 C 287.777344 198.644531 288.398438 199.386719 289.023438 200.125 C 289.632812 200.84375 290.25 201.558594 290.851562 202.289062 C 291.632812 203.234375 292.355469 204.230469 292.960938 205.300781 C 293.511719 206.289062 293.976562 207.332031 294.320312 208.414062 C 294.636719 209.40625 294.855469 210.441406 294.886719 211.488281 C 294.886719 211.632812 294.890625 211.777344 294.886719 211.925781 C 294.863281 212.695312 294.730469 213.46875 294.390625 214.160156 " fill-opacity="1" fill-rule="nonzero"/></g></g></g></g></g></svg>