<svg id="visual" viewBox="0 0 900 450" width="900" height="450" xmlns="http://www.w3.org/2000/svg" xmlns:xlink="http://www.w3.org/1999/xlink" version="1.1"><rect x="0" y="0" width="900" height="450" fill="#1f242d"></rect><path d="M0 276L30 282.5C60 289 120 302 180 306.3C240 310.7 300 306.3 360 306.2C420 306 480 310 540 305.3C600 300.7 660 287.3 720 278.8C780 270.3 840 266.7 870 264.8L900 263L900 451L870 451C840 451 780 451 720 451C660 451 600 451 540 451C480 451 420 451 360 451C300 451 240 451 180 451C120 451 60 451 30 451L0 451Z" fill="#0f00ab"></path><path d="M0 299L30 305.7C60 312.3 120 325.7 180 321.3C240 317 300 295 360 292C420 289 480 305 540 315.2C600 325.3 660 329.7 720 334.2C780 338.7 840 343.3 870 345.7L900 348L900 451L870 451C840 451 780 451 720 451C660 451 600 451 540 451C480 451 420 451 360 451C300 451 240 451 180 451C120 451 60 451 30 451L0 451Z" fill="#0e009b"></path><path d="M0 344L30 347.3C60 350.7 120 357.3 180 351.5C240 345.7 300 327.3 360 317.8C420 308.3 480 307.7 540 311.7C600 315.7 660 324.3 720 324.7C780 325 840 317 870 313L900 309L900 451L870 451C840 451 780 451 720 451C660 451 600 451 540 451C480 451 420 451 360 451C300 451 240 451 180 451C120 451 60 451 30 451L0 451Z" fill="#0d008b"></path><path d="M0 341L30 342.7C60 344.3 120 347.7 180 351.3C240 355 300 359 360 362.5C420 366 480 369 540 371C600 373 660 374 720 377.5C780 381 840 387 870 390L900 393L900 451L870 451C840 451 780 451 720 451C660 451 600 451 540 451C480 451 420 451 360 451C300 451 240 451 180 451C120 451 60 451 30 451L0 451Z" fill="#0b007b"></path><path d="M0 398L30 399C60 400 120 402 180 395.7C240 389.3 300 374.7 360 374.8C420 375 480 390 540 396.8C600 403.7 660 402.3 720 395C780 387.7 840 374.3 870 367.7L900 361L900 451L870 451C840 451 780 451 720 451C660 451 600 451 540 451C480 451 420 451 360 451C300 451 240 451 180 451C120 451 60 451 30 451L0 451Z" fill="#0a006d"></path><path d="M0 399L30 402.3C60 405.7 120 412.3 180 411.7C240 411 300 403 360 406C420 409 480 423 540 424.3C600 425.7 660 414.3 720 409.2C780 404 840 405 870 405.5L900 406L900 451L870 451C840 451 780 451 720 451C660 451 600 451 540 451C480 451 420 451 360 451C300 451 240 451 180 451C120 451 60 451 30 451L0 451Z" fill="#08005e"></path></svg>